<svg xmlns="http://www.w3.org/2000/svg" width="256" height="256" viewBox="0 0 100 100"><rect width="100" height="100" rx="20" fill="#50e3c2"></rect><path d="M81.49 18.05L81.49 63.05Q81.49 66.96 80.01 70.41Q78.54 73.86 75.97 76.43Q73.40 79.00 69.95 80.48Q66.50 81.95 62.59 81.95L62.59 81.95Q59.07 81.95 55.84 80.72Q52.61 79.49 50.02 77.11L50.02 77.11Q47.43 79.49 44.18 80.72Q40.93 81.95 37.41 81.95L37.41 81.95Q33.50 81.95 30.05 80.48Q26.60 79.00 24.03 76.43Q21.46 73.86 19.99 70.41Q18.51 66.96 18.51 63.05L18.51 63.05L18.51 18.05L31.13 18.05L31.13 63.05Q31.13 64.37 31.61 65.53Q32.09 66.70 32.95 67.56Q33.81 68.41 34.95 68.90Q36.09 69.38 37.41 69.38L37.41 69.38Q38.73 69.38 39.87 68.90Q41.01 68.41 41.87 67.56Q42.73 66.70 43.21 65.53Q43.69 64.37 43.69 63.05L43.69 63.05L43.69 18.05L56.31 18.05L56.31 63.05Q56.31 64.37 56.79 65.53Q57.27 66.70 58.13 67.56Q58.99 68.41 60.13 68.90Q61.27 69.38 62.59 69.38L62.59 69.38Q63.91 69.38 65.05 68.90Q66.19 68.41 67.05 67.56Q67.91 66.70 68.41 65.53Q68.92 64.37 68.92 63.05L68.92 63.05L68.92 18.05L81.49 18.05Z" fill="#fff"></path></svg>